<svg xmlns="http://www.w3.org/2000/svg" width="27" height="24" fill="none"><path fill="#FF6F00" d="M5.5 12.164h1.25v1.25h7.5v-1.25h1.25v-1.25h1.25v-7.5H15.5v-1.25h-1.25V.914h-7.5v1.25H5.5v1.25H4.25v7.5H5.5v1.25Zm1.25-6.25H8v-1.25h1.25v-1.25h2.5v1.25H13v1.25h1.25v2.5H13v1.25h-1.25v1.25h-2.5v-1.25H8v-1.25H6.75v-2.5Zm12.5 10H18v-1.25H3v1.25H1.75v1.25H.5v6.25H3v-3.75h1.25v-1.25H5.5v-1.25h10v1.25h1.25v1.25H18v3.75h2.5v-6.25h-1.25v-1.25Zm5-12.5v1.25H23v1.25h-1.25v1.25H20.5v-1.25H18v2.5h1.25v1.25H23v-1.25h1.25v-1.25h1.25v-1.25h1.25v-2.5h-2.5Z"/></svg>