<svg xmlns="http://www.w3.org/2000/svg" width="26" height="26" fill="none"><path fill="#FF6F00" d="M18.333 9.414v-1.25h-1.25v-2.5h-1.25v-2.5h-1.25v-2.5h-2.5v2.5h-1.25v2.5h-1.25v2.5h-1.25v1.25h-7.5v2.5h1.25v1.25h1.25v1.25h1.25v1.25h1.25v5h-1.25v2.5h-1.25v2.5h3.75v-1.25h2.5v-1.25h1.25v-1.25h5v1.25h1.25v1.25h2.5v1.25h3.75v-2.5h-1.25v-2.5h-1.25v-5h1.25v-1.25h1.25v-1.25h1.25v-1.25h1.25v-2.5h-7.5Zm0 3.75v1.25h-1.25v2.5h1.25v2.5h-2.5v-1.25h-5v1.25h-2.5v-2.5h1.25v-2.5h-1.25v-1.25h-1.25v-1.25h3.75v-1.25h1.25v-2.5h2.5v2.5h1.25v1.25h3.75v1.25h-1.25Z"/></svg>